<mxfile host="app.diagrams.net" modified="2024-01-15T21:34:10.718Z" agent="Mozilla/5.0 (Windows NT 10.0; Win64; x64) AppleWebKit/537.36 (KHTML, like Gecko) Chrome/120.0.0.0 Safari/537.36 Edg/120.0.0.0" etag="pp_cdOPNIb1hV7nzHAtT" version="22.1.18" type="github">
  <diagram name="Page-1" id="C6zKKz2-cY-2Afzm1BIK">
    <mxGraphModel dx="746" dy="505" grid="1" gridSize="10" guides="1" tooltips="1" connect="1" arrows="1" fold="1" page="1" pageScale="1" pageWidth="827" pageHeight="1169" math="0" shadow="0">
      <root>
        <mxCell id="0" />
        <mxCell id="1" parent="0" />
        <mxCell id="B9wa8Yp4J-PyqQV0Q75c-6" style="edgeStyle=orthogonalEdgeStyle;rounded=0;orthogonalLoop=1;jettySize=auto;html=1;comic=0;movable=1;flowAnimation=1;enumerate=0;" edge="1" parent="1">
          <mxGeometry relative="1" as="geometry">
            <mxPoint x="270" y="244.5" as="targetPoint" />
            <mxPoint x="600" y="244.5" as="sourcePoint" />
          </mxGeometry>
        </mxCell>
        <mxCell id="B9wa8Yp4J-PyqQV0Q75c-1" value="" style="shape=cylinder3;whiteSpace=wrap;html=1;boundedLbl=1;backgroundOutline=0;size=15;treeMoving=1;movableLabel=0;autosize=0;enumerate=0;comic=0;treeFolding=0;resizeHeight=0;resizeWidth=0;fixedWidth=0;metaEdit=0;fixDash=0;" vertex="1" parent="1">
          <mxGeometry x="610" y="190" width="80" height="110" as="geometry" />
        </mxCell>
        <mxCell id="B9wa8Yp4J-PyqQV0Q75c-3" style="rounded=0;orthogonalLoop=1;jettySize=auto;html=1;comic=0;movable=1;flowAnimation=1;" edge="1" parent="1">
          <mxGeometry relative="1" as="geometry">
            <mxPoint x="600" y="220" as="targetPoint" />
            <mxPoint x="280" y="220" as="sourcePoint" />
            <Array as="points">
              <mxPoint x="440" y="220" />
            </Array>
          </mxGeometry>
        </mxCell>
        <mxCell id="B9wa8Yp4J-PyqQV0Q75c-2" value="Actor" style="shape=umlActor;verticalLabelPosition=bottom;verticalAlign=top;html=1;outlineConnect=0;comic=0;movable=1;treeMoving=1;movableLabel=0;autosize=0;enumerate=0;treeFolding=0;resizeHeight=0;resizeWidth=0;fixedWidth=0;backgroundOutline=0;metaEdit=0;fixDash=0;" vertex="1" parent="1">
          <mxGeometry x="230" y="180" width="40" height="100" as="geometry" />
        </mxCell>
      </root>
    </mxGraphModel>
  </diagram>
</mxfile>
